<svg xmlns="http://www.w3.org/2000/svg" width="44" height="44" viewBox="0 0 44 44">
  <g id="Group_180" data-name="Group 180" transform="translate(-1012 -4271)">
    <g id="linkedin" transform="translate(1027 4286)">
      <path id="Path_330" data-name="Path 330" d="M18.161,17.818h0V12.327c0-2.686-.578-4.755-3.718-4.755A3.26,3.26,0,0,0,11.51,9.186h-.044V7.824H8.489v9.994h3.1v-4.95c0-1.3.247-2.563,1.861-2.563,1.59,0,1.614,1.487,1.614,2.647v4.866Z" transform="translate(-3.177 -2.862)" fill="#fff"/>
      <path id="Path_331" data-name="Path 331" d="M.4,7.977H3.5v10H.4Z" transform="translate(-0.135 -3.016)" fill="#fff"/>
      <path id="Path_332" data-name="Path 332" d="M1.777,0a1.806,1.806,0,1,0,1.8,1.8A1.806,1.806,0,0,0,1.777,0Z" transform="translate(0.038 0)" fill="#fff"/>
    </g>
    <g id="Ellipse_65" data-name="Ellipse 65" transform="translate(1012 4271)" fill="none" stroke="#fff" stroke-width="3">
      <circle cx="22" cy="22" r="22" stroke="none"/>
      <circle cx="22" cy="22" r="20.5" fill="none"/>
    </g>
  </g>
</svg>
