<svg xmlns="http://www.w3.org/2000/svg" xmlns:xlink="http://www.w3.org/1999/xlink" width="48.245" height="51.334" viewBox="0 0 48.245 51.334">
  <defs>
    <linearGradient id="linear-gradient" y1="0.501" x2="0.998" y2="0.501" gradientUnits="objectBoundingBox">
      <stop offset="0" stop-color="#e600ff"/>
      <stop offset="1" stop-color="#f3071d"/>
    </linearGradient>
  </defs>
  <g id="Muziq_Logo" data-name="Muziq Logo" transform="translate(0)">
    <path id="Path_13" data-name="Path 13" d="M5.653,51.285A5.618,5.618,0,0,1,0,45.658V5.642A5.556,5.556,0,0,1,2.764.765,6.035,6.035,0,0,1,8.419.64l15.7,8.628L39.826.64a5.7,5.7,0,0,1,5.654.125,5.556,5.556,0,0,1,2.764,4.877v25.01a5.654,5.654,0,0,1-11.307,0V15.146l-10.051,5.5a6.149,6.149,0,0,1-5.528,0l-10.051-5.5V45.658a5.618,5.618,0,0,1-5.654,5.627Z" transform="translate(0.001 0.049)" fill="url(#linear-gradient)"/>
  </g>
</svg>
