<svg xmlns="http://www.w3.org/2000/svg" xmlns:xlink="http://www.w3.org/1999/xlink" width="52.433" height="58.791" viewBox="0 0 52.433 58.791">
  <defs>
    <linearGradient id="linear-gradient" x1="0.5" x2="0.5" y2="1" gradientUnits="objectBoundingBox">
      <stop offset="0" stop-color="#f3071d"/>
      <stop offset="1" stop-color="#e600ff"/>
    </linearGradient>
  </defs>
  <g id="Group_3" data-name="Group 3" transform="translate(-931.128 -1449.76)">
    <g id="music_icon" data-name="music icon" transform="translate(931.128 1449.76)">
      <g id="Group_185" data-name="Group 185" transform="translate(13.65 13.236)">
        <g id="Group_184" data-name="Group 184" transform="translate(0 0)">
          <path id="Path_327" data-name="Path 327" d="M152.15,113.4,127.387,120.4a1.752,1.752,0,0,0-1.273,1.682v23.749a6.891,6.891,0,0,0-3.5-.969,7.009,7.009,0,1,0,7.009,7.009V130.414l21.26-6v14.426a6.891,6.891,0,0,0-3.5-.969,7.009,7.009,0,1,0,7.01,7.009V115.089a1.755,1.755,0,0,0-2.233-1.694Z" transform="translate(-115.6 -113.329)" fill="url(#linear-gradient)"/>
        </g>
      </g>
      <g id="Group_187" data-name="Group 187" transform="translate(0 0)">
        <g id="Group_186" data-name="Group 186">
          <path id="Path_328" data-name="Path 328" d="M24.186,1.073V9.531a1.064,1.064,0,0,1-.771,1.016L13.9,13.233V34.692a7.082,7.082,0,1,1-3.5-6.028V4.916a1.738,1.738,0,0,1,1.273-1.682L22.843.069a1.044,1.044,0,0,1,1.343,1Z" transform="translate(0.268 -0.025)" fill="url(#linear-gradient)"/>
        </g>
      </g>
    </g>
  </g>
</svg>
