<svg xmlns="http://www.w3.org/2000/svg" width="44" height="44" viewBox="0 0 44 44">
  <g id="Group_178" data-name="Group 178" transform="translate(-829 -4271)">
    <g id="twitter" transform="translate(843 4286)">
      <path id="twitter-2" data-name="twitter" d="M16.222,43.819a6.639,6.639,0,0,1-1.914.515A3.226,3.226,0,0,0,15.77,42.5a6.53,6.53,0,0,1-2.109.8,3.335,3.335,0,0,0-4.781-.077,3.2,3.2,0,0,0-.973,2.349,3.682,3.682,0,0,0,.082.761,9.272,9.272,0,0,1-3.822-1.023,9.423,9.423,0,0,1-3.031-2.452A3.32,3.32,0,0,0,2.162,47.3a3.3,3.3,0,0,1-1.5-.422v.044a3.206,3.206,0,0,0,.756,2.113,3.271,3.271,0,0,0,1.909,1.146,3.448,3.448,0,0,1-.875.113,4.247,4.247,0,0,1-.628-.051,3.331,3.331,0,0,0,3.108,2.3A6.515,6.515,0,0,1,.8,53.963a7.087,7.087,0,0,1-.8-.039,9.24,9.24,0,0,0,5.1,1.492,9.723,9.723,0,0,0,3.324-.56,8.452,8.452,0,0,0,2.655-1.5,10.047,10.047,0,0,0,1.9-2.164,9.645,9.645,0,0,0,1.189-2.554,9.427,9.427,0,0,0,.391-2.668q0-.288-.01-.432a6.958,6.958,0,0,0,1.669-1.716Z" transform="translate(0 -42.254)" fill="#fff"/>
    </g>
    <g id="Ellipse_63" data-name="Ellipse 63" transform="translate(829 4271)" fill="none" stroke="#fff" stroke-width="3">
      <circle cx="22" cy="22" r="22" stroke="none"/>
      <circle cx="22" cy="22" r="20.5" fill="none"/>
    </g>
  </g>
</svg>
